<?xml version="1.0" encoding="UTF-8"?>
<svg id="Layer_1" xmlns="http://www.w3.org/2000/svg" version="1.1" viewBox="0 0 1080 1080">
  <!-- Generator: Adobe Illustrator 29.2.1, SVG Export Plug-In . SVG Version: 2.1.0 Build 116)  -->
  <defs>
    <style>
      .st0 {
        fill: #d4a5a5;
      }
    </style>
  </defs>
  <path class="st0" d="M108.9,552.5c-6-7.1-13.9-11.3-23.4-12.3l-2.6-.3,1,9.2,1.5.3c7.1,1.4,12.8,5,17,10.5,4.3,5.7,6.8,12,7.5,18.8,1.4,12.8-1.8,22.5-9.7,29.7-8,7.3-19.6,11.7-34.6,13.4-14.9,1.6-27.2-.6-36.6-6.4-9.3-5.8-14.5-14.9-15.9-27.7-.8-8,.4-15,3.9-20.9,3.4-5.9,8.4-9.3,15.2-10.7l1.8-.4-.8-7.7-33.1,3.6,1,9,8.6-.9c-2,3.6-3.7,8-5,13-1.4,5.4-1.8,11.5-1.1,18.2,1.2,10.9,4.5,20.2,10,27.7,5.5,7.6,12.8,13,22.1,16.3,6.5,2.4,13.8,3.5,21.8,3.5s6.5-.3,9.9-.6c18.3-2,32.1-8.1,41.3-18,9.1-10.1,12.9-23.5,11.2-40-1.3-11.1-4.9-20.2-10.8-27.3Z"/>
  <path class="st0" d="M135,384.4c-.8,3-2.3,5.2-4.5,6.6-2.5,1.5-5.2,2.4-8.2,2.9-3.3.3-7.6.6-12.9.7-5.7,0-10.3.4-13.8,1-2.3.4-4.3,1.2-6.1,2.3-1.3-13.1-9.8-21.8-25.5-26-10.4-2.8-19.2-2.3-26.4,1.6-7.1,3.9-12.4,11.8-15.5,23.7l-13.6,50.8,7.6,2,1.6-6.3c.9-3.3,1.9-4.8,2.5-5.4.8-.8,1.5-.9,2.6-.7l88.3,23.7c1.4.3,1.8,1.1,1.9,1.8.2.9.4,2.7-.5,6l-1.7,6.3,7.4,1.9,11.2-42-7.4-1.9-1.8,6.4c-1.8,6.9-4.2,6.3-5,6l-33.5-9,6.3-23.6c2.2-1.2,4.9-2,8-2.3,3.5-.3,8.3-.4,14.1-.3h7.6c5.7,0,10.5-1.1,14.2-3.3,3.9-2.2,6.5-5.9,7.8-10.8l3.3-12.2-7.4-1.9-.6,2ZM77.9,413.9l-5.5,20.3-47-12.6,5.5-20.3c2.9-10.6,9.1-15.9,18.9-15.9s6.5.5,10.2,1.5c7.9,2.2,13.4,5.5,16.4,9.9,2.9,4.4,3.4,10,1.6,17Z"/>
  <path class="st0" d="M165,318.5c-.4,2-1.1,3.8-2.2,5.2l-2.7,3.6,6.2,4.5,21.8-29.3-6.1-4.5-2.9,3.8c-.9,1.3-2.2,2.3-3.7,2.9-1.7.8-2.3.3-2.4.3-.2-.2-.4-.5-.7-.8l-12.8-20,24.8-33.3,25.3,7.6s0,.3-.2,1.2c-.5,1.7-1.3,3.4-2.4,4.9l-2.7,3.5,6.1,4.6,24.1-32.3-6.1-4.5-2.9,3.8c-.9,1.3-2.3,2.4-4,3.4-1.5.8-2.9,1-4,.6l-107.3-31-2.6,12.5,56.9,89.1c.6.9.7,2.3.3,4.3ZM174.7,247.9l-20.7,27.7-27.4-42.5,48.2,14.8Z"/>
  <path class="st0" d="M225.7,112c3.4-2.2,5.3-2.4,6.2-2.1.4,0,1,.3,1.6,1.2l49,77.1c.4.8,1.8,2.9-4.3,6.7l-5.5,3.5,4,6.5,36.7-23.3-4.1-6.4-5.5,3.4c-2.3,1.5-4.2,2.3-5.5,2.3s-1.7-.3-2.3-1.3l-21.4-33.7,20.8-13.2c2.4-1.5,3.8-.9,4.8-.2,1.9,1.4,4.4,4.3,7.6,8.3l1.2,1.6,6.1-3.9-21.7-34.2-6.2,3.9.9,1.8c2.4,4.5,3.9,8.1,4.4,10.4.3,1.2.3,2.7-2.2,4.2l-20.8,13.3-23.2-36.6,31.7-20.1c3.2-2,6.1-2,9.1,0,3.4,2.5,6.7,5.9,9.9,10.1l1.2,1.5,6.3-4-16.3-25.5-72.3,45.8,4.2,6.6,5.6-3.6Z"/>
  <path class="st0" d="M396,53.9l-.3-1.9c-.8-5.3-1-10.3-.6-15.1.5-5.3,3.2-6.5,5.1-6.9l19.6-4.4,19.9,90.7c.2.8.7,3.4-6.4,4.9l-6.4,1.4,1.7,7.5,42.4-9.3-1.6-7.5-6.4,1.3c-3.3.8-5,.6-6,.3-.7-.2-1.3-.6-1.7-2l-19.9-90.7,19.5-4.3c2-.3,5-.4,7.6,4.2,2.4,4.1,4.4,8.8,5.8,13.9l.5,1.9,7.4-1.6-6.9-31.5-87.6,19.2,6.9,31.4,7.4-1.6Z"/>
  <path class="st0" d="M646.1,94.7l-7.6-1.1-.4,1.8c-1.3,5.2-3.1,9.9-5.6,13.8-2.2,3.4-4.8,4.8-8.2,4.4l-38.9-5.5,6.4-44.9,27.2,3.9c2.8.4,3.4,1.8,3.7,2.9.6,2.4.7,6.2.3,11.3v1.9c0,0,7.1,1,7.1,1l5.7-40.2-7.2-1-.5,1.8c-1.1,5.2-2.3,8.7-3.4,10.8-.5,1-1.5,2.2-4.4,1.8l-27.2-3.9,5.5-38.9,37.2,5.3c3.8.6,6,2.4,6.8,6,1,4.1,1.3,8.8,1,14v1.9c0,0,7.3,1.1,7.3,1.1l4.3-30-84.8-12-1.1,7.6,6.4.9c7.2,1,6.9,3.5,6.8,4.4l-12.8,90.5c-.2,1.1-.6,1.5-.9,1.8-.7.4-2.4,1.2-6.8.6l-6.4-.9-1.1,7.6,84.4,12,7.3-30.8Z"/>
  <path class="st0" d="M768.7,174.5c4.8,0,9.3-.8,13.8-2.4,11.9-4.5,22.4-14.9,31.2-30.9,8.7-15.9,11.8-30.3,9.2-42.8-2.6-12.6-11.2-23-25.4-30.8l-43.6-23.9-3.8,6.8,5.9,3.2c2.8,1.5,4.5,3.1,4.9,4.4.2.4.2,1-.3,1.9l-44,80.2c-.5.9-1.2,1.3-2.2,1.4-1,0-2.8-.3-5.6-1.8l-5.9-3.3-3.7,6.7,43.6,23.8c9.1,5,17.7,7.5,25.9,7.5ZM775.4,66.3l17.4,9.5c9.8,5.5,15.1,12.8,16.2,22.7,1,10-2.2,21.7-9.4,35-7.3,13.3-15.5,22.2-24.6,26.8-8.9,4.4-18,3.9-28-1.5l-17-9.4,45.5-83Z"/>
  <path class="st0" d="M931.7,356.5l-3-5.7c-1.6-3-1.9-4.8-1.8-5.7,0-1,.5-1.7,1.5-2.2l80.7-42.9c1-.6,1.8-.6,2.6,0,.8.4,2.1,1.7,3.7,4.7l3.1,5.7,6.9-3.7-20.4-38.4-6.9,3.7,3.1,5.9c3.4,6.3,1.2,7.5.3,7.9l-80.7,42.9c-.8.4-3,1.6-6.3-4.7l-3.2-5.9-6.7,3.6,20.4,38.4,6.7-3.6Z"/>
  <path class="st0" d="M1073.8,470.6l-7.6,1.2,1,6.5c.6,3.4.2,5.1,0,6-.3.7-.7,1.3-2.1,1.6l-76.4,12.5,78.1-70.9-5-30.4-7.7,1.3,1.1,6.5c.5,3.3.3,5,0,6-.4.9-1,1.4-2.1,1.6l-90.2,14.8c-1.1.2-1.8,0-2.5-.8-.6-.7-1.4-2.3-1.9-5.6l-1.1-6.4-7.6,1.2,6.2,37.9,7.6-1.3-1.1-6.5c-1.1-7,1.3-7.4,2.2-7.6l85.3-13.9-84.9,77.7-.8.8,1.8,10.8,101.1-16.6c.9-.2,3.3-.5,4.4,6.5l1.1,6.5,7.6-1.3-6.2-37.9Z"/>
  <path class="st0" d="M269.1,867.7l-6,6.1c-.8-4-2.2-8.3-4.4-13.3-2.3-5-5.9-10-10.7-14.8-7.8-7.7-16.3-12.8-25.3-15.2-9-2.4-18.2-1.9-27.4,1.3-9.1,3.2-18,9.2-26.4,17.8-12.9,13-19.8,26.5-20.6,40-.8,13.6,4.8,26.4,16.6,38,7.9,7.9,16.5,12.7,25.6,14.4,2.3.4,4.5.7,6.7.7,6.8,0,13.2-2,19.2-6l2.2-1.4-6.6-6.5-1.3.8c-6.5,3.4-13,4.4-19.8,2.7-6.9-1.8-12.8-5.1-17.7-9.9-9.1-9.1-12.8-18.5-11.2-29.1,1.6-10.7,7.8-21.6,18.4-32.3,10.5-10.7,21.4-16.8,32.3-18.1,10.9-1.4,20.7,2.3,29.9,11.3,5.7,5.7,9.1,11.9,10.2,18.6,1.1,6.7-.6,12.6-5,18l-1.2,1.5,5.5,5.5,23.4-23.8-6.5-6.3Z"/>
  <path class="st0" d="M373.2,1044.5c-1.1-1.3-1.7-2.6-1.6-3.8l5.5-111.5-12.8.3-73.6,76c-.8.8-2.2,1.2-4,1.3-2.1,0-4-.2-5.6-.9l-4.1-1.7-3,7,33.6,14.5,3-7-4.4-1.9c-1.5-.6-2.8-1.6-3.8-2.9-1.1-1.4-.8-2.2-.7-2.4,0-.2.3-.5.5-.8l16.5-17.1,38.2,16.5-1.5,26.4s-.3.2-1.2,0c-1.8,0-3.5-.5-5.3-1.3l-4.1-1.8-3,7.1,36.9,16,3-7-4.3-1.8c-1.5-.7-2.9-1.8-4.2-3.2ZM360.7,949.5l-3.3,50.3-31.7-13.8,35-36.5Z"/>
  <path class="st0" d="M548.1,972.5l6.5.2c3.4,0,5.1.7,5.9,1.2.8.5,1.3,1.3,1.2,2.3l-1.8,77.5-55.3-89.9-30.7-.7-.3,7.7,6.5.2c3.4,0,5,.7,5.9,1.2.8.5,1.2,1.3,1.2,2.4l-2.1,91.4c0,1.4-.7,1.9-1.3,2.3-.8.5-2.5,1.1-6,.9l-6.5-.2-.2,7.6,38.4.9.3-7.6-6.6-.2c-4.1,0-5.8-1-6.5-1.7-.3-.3-.6-.8-.6-1.8l1.9-86.4,61.4,98.8,10.9.3,2.3-102.4c0-.9.2-3.4,7.2-3.2l6.6.2.2-7.8-38.4-.8-.2,7.7Z"/>
  <path class="st0" d="M776.9,1017.8c-1.5.6-3.3.8-5.2.6-1.7-.2-2.9-.7-3.8-1.6l-73.8-83.8-8.9,9.1v105.8c0,1.1-.7,2.3-1.9,3.7-1.4,1.6-3,2.7-4.6,3.3l-4.2,1.6,2.8,7.1,34.2-12.9-2.7-7.1-4.4,1.7c-1.5.6-3.1.8-4.8.5-1.8-.3-2-1-2.1-1.3,0-.3-.2-.6-.2-.9l-.2-23.7,38.9-14.7,17.2,19.9s0,.3-.8.9c-1.3,1.2-2.9,2.1-4.6,2.8l-4.2,1.6,2.7,7.1,37.7-14.3-2.7-7.1-4.4,1.7ZM729.4,997.3l-32.4,12.3-.3-50.5,32.6,38.3Z"/>
  <path class="st0" d="M861,842.4c-12.8-1.7-25.3,3-37.4,13.9l-36.9,33.3,5.2,5.8,4.9-4.4c5.3-4.8,7.1-2.9,7.6-2.3l61.3,67.8c.6.7,2.3,2.5-3,7.3l-5,4.4,5.2,5.6,36.8-33.2c12.1-10.9,18-23,17.8-35.8-.3-12.8-6.7-26.1-19-39.6-12.1-13.5-24.7-21.2-37.3-22.8ZM878.6,946.9l-63.4-70.2,14.7-13.3c8.3-7.6,17.1-10.1,26.7-7.9,9.7,2.3,19.9,9.1,30,20.4,10.2,11.2,15.9,22,17.2,32,1.3,9.9-2.2,18.4-10.7,26l-14.4,13Z"/>
  <path class="st0" d="M1035.6,737.7c-.8,1.5-1.9,2.8-3.5,3.9-1.3,1-2.6,1.4-3.9,1.3l-110.9-13.2-.5,12.8,70.6,78.7c.7.8,1,2.2,1,4.2,0,2-.5,3.9-1.3,5.5l-2.1,3.9,6.8,3.5,16.9-32.4-6.8-3.5-2.2,4.2c-.8,1.4-1.8,2.6-3.2,3.5-1.5,1-2.3.6-2.4.5s-.5-.3-.8-.6l-15.9-17.5,19.1-36.9,26.2,3.4s0,.3,0,1.2c-.2,1.8-.8,3.5-1.6,5.2l-2.1,3.9,6.8,3.5,18.5-35.8-6.7-3.5-2.2,4.2ZM970.6,784.9l-33.9-37.5,49.9,6.8-16,30.7Z"/>
  <path class="st0" d="M619.1,675.4c5,6,70.8,83.8,78.9,85.9,8.2,2.1,12.6-.7,17.8-11.5,5.2-10.7-4.4-10.7-27.9-30.3-23.5-19.6-51.7-38.5-59.4-51.2-1.3-2-2.4-3.8-3.5-5.5h0c17.1,8,54.4,23.1,89.4,20.8,47.3-3.3,60-13.8,42.2-25.8.9-.3,14.7-4.4,31.6-11.6,19.6-8.3,43.4-20.8,57.8-36.9,27.5-30.7,37.3-51.4,27.6-55.7-9.7-4.4-66.2-13.3-110.5-10.8h0c1.6-.9,57.7-31.6,40.9-28.5-38.8,6.9-120.9,30.6-132.4,25.3.8-1,21.7-24.8,29.7-37.7,8.2-13.2,29.5-38.9,39.4-69.4,9.8-30.6,19.6-81.7,12.1-88.8-7.5-7-31.7,16.9-32.7,17.8-.9-2.6-16.4-50.4-30.4-86.1-13.8-35.3-28.1-21.1-51.1,1.2-23.1,22.2-50.3,70.7-55.6,73.2-5.1,2.3-20.3-22.7-29-18.5-8.6,4-6.6,47.3-5.3,63.5,1.3,16.3-4.1,57.8-16.4,62.4h0c-.2-1.2-7.7-34-28.9-68.7-26.5-43.6-63.1-65-63.2-65.1q0,0-.2,0c-.4.4-14.7,12.3-15.1,30.4h0c-1.2-.6-30.9-14.1-52.5-24.8l-22.1-10.8s-22.6-9.4-29.5-6.5l-.5.3c-6.3,3.8-10.5,45.2-4,74.4,6.5,29.1,14.9,28.1,1.4,27.4-4.4-.3-8.1-.8-10.9-.7-.2-.3-.3-.4-.5-.6-.5-.8-1.6-1.2-2.4-.8-.8.5-1,1.4-.8,2.3h0c-2.7,1.8-2.9,6.6.3,18,6.3,22.4,46.1,90.9,91.6,113.6h0c-3.9.2-114.2,5.2-119.8,14.9-5.4,9.5,25.8,26.2,27.6,27.2h0c-3,.3-74.8,5-78,21.5-3.8,20.3,80.4,66.1,82.5,67.2-.7.4-9.9,6.6-19.1,13.6-9.2,6.8-18.6,14.5-19.6,17.9-2.3,7.1,51.5,11.6,101,6.6,26.4-2.7,82.8-20.1,84.6-20.6h0c-.3,1.2-5,23.2-19.4,48.1-14.7,25.6-42,71.9-9.6,55.7l36.7-24.6c1.6,8.1,5.3,21.2,13.7,41.9,19.6,48.1,25.5,47,35.4,36.8,9.7-9.9,55.4-50.9,60.4-54.6,5.1-3.7,27,16.9,36.4,13.4,9.3-3.5,13.8-68.8,13.8-99.4,0-14.2-1.3-26.4-2.8-35.6,0,0,0,0,0,0Z"/>
</svg>