<?xml version="1.0" encoding="UTF-8"?>
<svg id="Layer_1" xmlns="http://www.w3.org/2000/svg" version="1.1" viewBox="0 0 1920 490.1">
  <!-- Generator: Adobe Illustrator 29.2.1, SVG Export Plug-In . SVG Version: 2.1.0 Build 116)  -->
  <defs>
    <style>
      .st0 {
        fill: #2c2c2c;
      }
    </style>
  </defs>
  <path class="st0" d="M370,63.1C332,25.2,282.6,3.1,229.5,0v57.1h-12.7C97.3,57.1,0,154.3,0,273.8s90.4,209.7,204,216.3v-57h12.7c57.9,0,112.3-22.6,153.3-63.5,40.9-41,63.4-95.4,63.4-153.2s-22.5-112.3-63.4-153.3ZM216.7,343.9h-12.7v-100.4h-100.4v-12.7c0-62.4,50.8-113.1,113.1-113.1s113.1,50.7,113.1,113.1-50.7,113.1-113.1,113.1Z"/>
  <g>
    <path class="st0" d="M593.6,57.1h-76.6v333.1h44.7v-142.3h31.9c137.5,0,133.3-190.8,0-190.8ZM578.3,238.9h-16.7V66.1h16.7c93.3,0,89.5,172.8,0,172.8Z"/>
    <path class="st0" d="M773.9,182.7v-49.5h-41.8v257h41.8v-186.6c7.2-26.1,27.1-43.8,42.9-43.8s20.4,9.5,20.4,31.5h9.1v-60c-27.6,0-56.2,16.3-72.4,51.4Z"/>
    <path class="st0" d="M880.6,133.2v257h42.4V133.2h-42.4ZM902,58.5c-14.3,0-25.7,11.5-25.7,25.3s11.4,25.7,25.7,25.7,25.2-11.5,25.2-25.7-11.4-25.3-25.2-25.3Z"/>
    <path class="st0" d="M1086.7,131.3c-25.7,0-52.8,16.3-69.1,48.5v-46.6h-41.8v257h41.8v-186.6c8.6-32.3,29.6-48.5,49.6-48.5s43.3,20.5,43.3,60.5v174.6h41.8v-174.6c0-56.2-31.4-84.3-65.6-84.3Z"/>
    <path class="st0" d="M1247.5,133.2v-50.9h-9l-48,50.9v8.5h15.1v248.4h41.9v-248.4h14.7v-8.5h-14.7Z"/>
    <path class="st0" d="M1341.8,183.7c0-27.1,18.5-43.8,39.9-43.8,31,0,48,26.1,48,63.3h9.1v-58.6c-19.1-9-41.4-13.8-62.9-13.8-41.4,0-79,18.2-79,59.1,0,77.1,111.4,92.7,111.8,154.6,0,21.4-15.2,39.1-42.8,39.1s-57.2-27.1-57.2-64.3h-9v58.5c20.9,10.1,44.3,14.8,66.2,14.8,47.1,0,87.5-22.3,87.5-60,0-65.2-111.8-92.7-111.8-148.9Z"/>
    <path class="st0" d="M1601.6,131.3c-29.5,0-50.9,16.7-63.8,42.4v-40.4h-41.8v356.9h41.8v-140.9c12.9,26.2,34.7,43.4,63.8,42.9,113.2-1.9,112.3-260.8,0-260.8ZM1587.4,374c-20,0-41.4-19-49.6-48.5v-127.6c8.1-29.5,29.6-49,49.6-49,71.8,0,71.8,225.1,0,225.1Z"/>
    <path class="st0" d="M1821,131.3c-63.8,0-99.4,53.8-99.4,130.4s32.4,130.4,99,130.4,99.4-53.7,99.4-130.4-35.2-130.4-99-130.4ZM1820.6,383.1c-34.7,0-52.4-57.6-52.4-121.4s17.2-121.4,52.4-121.4c35.1-.4,52.8,57.6,52.8,121.4s-17.7,121.4-52.8,121.4Z"/>
  </g>
</svg>