<?xml version="1.0" encoding="UTF-8"?>
<svg id="Layer_1" xmlns="http://www.w3.org/2000/svg" version="1.1" viewBox="0 0 2014.7 490.1">
  <!-- Generator: Adobe Illustrator 29.2.1, SVG Export Plug-In . SVG Version: 2.1.0 Build 116)  -->
  <defs>
    <style>
      .st0 {
        fill: #4c4c4c;
      }
    </style>
  </defs>
  <path class="st0" d="M372.1,63.8C332.6,24.4,278.2,0,218,0v54.5c-60.2,0-114.7,24.4-154.1,63.8C24.4,157.8,0,212.3,0,272.5s24.4,114.7,63.8,154.1c39.5,39.4,93.9,63.8,154.1,63.8v-54.5c60.2,0,114.7-24.4,154.1-63.8,39.4-39.5,63.8-94,63.8-154.2s-24.4-114.7-63.8-154.1ZM218,327v-95.4h-95.4c0-52.7,42.7-95.4,95.4-95.4s95.4,42.7,95.4,95.4-42.7,95.4-95.4,95.4Z"/>
  <g>
    <path class="st0" d="M605.8,56.1h-85.6v335.4h54.6v-140.8h31c34.9,0,64-10.4,84.4-30,18-17.4,28-40.9,28-66.2,0-48.9-38.6-98.5-112.4-98.5ZM574.8,71h14.7c48.4,0,70.4,42,70.4,81.1s-6.6,42.7-18,57.9c-9,11.8-25.3,25.9-52.4,25.9h-14.7V71Z"/>
    <path class="st0" d="M811.6,161.5v-33.1h-52.9v266.1h52.9v-189.6c6.7-23.6,23.9-38.2,36.2-38.2s14.2,17.6,14.2,25.1v5.9h20.7v-71.2h-5.9c-25.5,0-48.8,12.6-65.1,35Z"/>
    <path class="st0" d="M949.4,42.4c-17.2,0-31.1,13.9-31.1,30.9s14,31.4,31.1,31.4,30.7-14.1,30.7-31.4-13.8-30.9-30.7-30.9Z"/>
    <rect class="st0" x="922.5" y="128.4" width="53.4" height="266.1"/>
    <path class="st0" d="M1136.8,126.6c-23.6,0-45.7,12-61.9,33.2v-31.3h-52.9v266.1h52.9v-189.7c7.1-26.1,23.8-42.9,42.7-42.9s36.7,16.8,36.7,53.8v178.7h52.9v-178.7c0-61.6-35.4-89.2-70.4-89.2Z"/>
    <polygon class="st0" points="1312.7 78.1 1295.4 78.1 1246.5 130.3 1244.8 132 1244.8 148.8 1259.8 148.8 1259.8 394.5 1312.7 394.5 1312.7 148.8 1327.2 148.8 1327.2 128.4 1312.7 128.4 1312.7 78.1"/>
    <path class="st0" d="M1464.9,247.5h0c-25.5-20.2-49.6-39.4-49.6-63.2s16.8-37.3,33.4-37.3c25.5,0,41.3,21.7,41.3,56.6v5.9h20.7v-67.6l-3.4-1.6c-19.2-9.2-42-14.2-64.2-14.2-50.7,0-83.5,25.3-83.5,64.3s31.4,67.2,61.7,90.4c24.6,18.8,47.9,36.6,48.1,62.6,0,19.5-14.5,32.7-36.2,32.7s-50.2-25.3-50.2-57.6v-5.9h-20.7v67.6l3.4,1.6c20.6,9.9,43.9,15.2,67.5,15.2,53.2,0,91.9-27.5,91.9-65.3s-30.6-60.6-60.2-84.1Z"/>
    <path class="st0" d="M1675.6,126.6c-27.6,0-51,13.3-66.8,37.7v-35.6h-52.7v361.8h52.7v-131.6c16,25.1,39.5,38.4,66.9,38.1,67-1.2,96.9-65.9,96.3-137.5-.6-70-31-132.8-96.4-132.8ZM1715.8,261.7c0,32.2-5.2,49.3-14.6,71.5-7.1,16.9-20.1,36.9-41.4,36.9s-43-21.4-51.2-50.9v-115.1c8.3-29.8,29.7-51.4,51.2-51.4,36.7,0,56,48.6,56,108.9Z"/>
    <path class="st0" d="M1906.7,126.6c-67,0-108.6,51.8-108.6,135.1s40.4,135.2,108,135.2,108.6-50.5,108.6-135.2-41.4-135.1-108-135.1ZM1906.2,141.8h.4c8.1,0,15.6,3.2,22.2,9.4,18.6,17.6,30.2,59.9,30.2,110.5s-16.5,119.9-52.8,119.9-52.3-62.2-52.3-119.9,16.2-119.9,52.3-119.9Z"/>
  </g>
</svg>